<?xml version="1.0" encoding="UTF-8" standalone="no"?>
<svg
   xmlns:dc="http://purl.org/dc/elements/1.1/"
   xmlns:cc="http://creativecommons.org/ns#"
   xmlns:rdf="http://www.w3.org/1999/02/22-rdf-syntax-ns#"
   xmlns:svg="http://www.w3.org/2000/svg"
   xmlns="http://www.w3.org/2000/svg"
   xmlns:sodipodi="http://sodipodi.sourceforge.net/DTD/sodipodi-0.dtd"
   xmlns:inkscape="http://www.inkscape.org/namespaces/inkscape"
   sodipodi:docname="heads.svg"
   inkscape:version="1.0 (4035a4f, 2020-05-01)"
   id="svg8"
   version="1.1"
   viewBox="0 0 210 297"
   height="297mm"
   width="210mm">
  <defs
     id="defs2" />
  <sodipodi:namedview
     inkscape:window-maximized="0"
     inkscape:window-y="23"
     inkscape:window-x="0"
     inkscape:window-height="837"
     inkscape:window-width="1179"
     inkscape:snap-bbox="false"
     inkscape:snap-nodes="true"
     showgrid="false"
     inkscape:document-rotation="0"
     inkscape:current-layer="layer1"
     inkscape:document-units="mm"
     inkscape:cy="538.57207"
     inkscape:cx="333.52114"
     inkscape:zoom="0.67842142"
     inkscape:pageshadow="2"
     inkscape:pageopacity="0.0"
     borderopacity="1.0"
     bordercolor="#666666"
     pagecolor="#ffffff"
     id="base" />
  <metadata
     id="metadata5">
    <rdf:RDF>
      <cc:Work
         rdf:about="">
        <dc:format>image/svg+xml</dc:format>
        <dc:type
           rdf:resource="http://purl.org/dc/dcmitype/StillImage" />
        <dc:title></dc:title>
      </cc:Work>
    </rdf:RDF>
  </metadata>
  <g
     id="layer1"
     inkscape:groupmode="layer"
     inkscape:label="Layer 1">
    <path
       d="m 79.537188,184.72296 c 7.355546,-9.39418 17.547152,-18.19923 17.547152,-18.19923 0,0 2.03855,-1.58799 1.961625,-8.13845 -0.07693,-6.55048 -0.461558,-9.18058 -0.461558,-9.18058 0,0 -1.480836,-0.0993 -1.596224,-4.91286 -0.115388,-4.81359 -0.442326,-15.48292 -0.461557,-17.46791 -0.01923,-1.985 0.653871,-6.45121 3.077054,-8.63471 2.42319,-2.1835 2.71166,-3.67223 5.82718,-4.26772 3.11553,-0.59551 3.34632,1.58798 4.78868,5.95496 1.44238,4.36698 1.07698,5.8061 1.09621,9.87532 0.0193,4.06924 -0.38463,6.4016 -0.38463,6.4016 0,0 1.13466,-0.84364 0.88465,3.47373 -0.25001,4.31736 -1.0385,9.47833 -1.0385,9.47833 0,0 -0.28848,1.29025 -1.00005,1.43912 -0.71157,0.14889 -0.82696,4.11885 -0.90388,6.35196 -0.0769,2.23313 -0.23078,5.45873 0.38463,6.00461 0.61541,0.54586 4.21172,4.21811 6.55798,7.54295 2.34625,3.32489 13.39753,8.60536 13.62831,15.60245 0.23079,6.9971 1.91494,64.71696 1.91494,64.71696 l -54.033047,0.45495 z M 62.635786,190.701 c 12.816809,-10.63188 29.302568,-23.78066 29.302568,-23.78066 0,0 3.552114,-1.79722 3.418068,-9.21072 -0.134042,-7.41352 -0.804248,-10.39014 -0.804248,-10.39014 0,0 -2.580311,-0.11234 -2.781372,-5.56014 -0.201063,-5.4478 -0.770742,-17.52284 -0.804253,-19.76936 -0.03351,-2.24652 1.139357,-7.30117 5.36168,-9.77235 4.222321,-2.47118 4.724971,-4.15606 10.153681,-4.83001 5.42871,-0.67396 5.83085,1.79721 8.34412,6.73955 2.5133,4.94234 1.8766,6.57106 1.91011,11.17641 0.0336,4.60538 -0.67021,7.24503 -0.67021,7.24503 0,0 1.97712,-0.95479 1.54148,3.93141 -0.43564,4.88618 -1.80956,10.72712 -1.80956,10.72712 0,0 -0.50266,1.46024 -1.74255,1.62873 -1.23989,0.1685 -1.44096,4.66152 -1.57499,7.18884 -0.13404,2.52736 -0.40212,6.17794 0.67021,6.79574 1.07233,0.61778 7.33879,4.77385 11.42708,8.53675 4.08827,3.76295 22.20592,15.16366 22.60805,23.08264 0.40214,7.91899 0.29974,56.33336 0.29974,56.33336 H 62.579355 Z m -26.203993,9.78729 c 20.938002,-14.6911 47.869739,-32.86007 47.869739,-32.86007 0,0 5.802863,-2.48338 5.583881,-12.72734 -0.218976,-10.24398 -1.313851,-14.35708 -1.313851,-14.35708 0,0 -4.215288,-0.15523 -4.54375,-7.683 -0.328463,-7.52776 -1.259112,-24.21303 -1.313857,-27.31725 -0.05475,-3.10423 1.861297,-10.088747 8.759038,-13.503417 6.897732,-3.414669 7.718892,-5.74284 16.587417,-6.674105 8.86853,-0.931267 9.52547,2.483386 13.63125,9.312706 4.10581,6.829306 3.06567,9.079886 3.12042,15.443546 0.0548,6.3637 -1.09488,10.01116 -1.09488,10.01116 0,0 3.22989,-1.31931 2.51821,5.43241 -0.71167,6.75172 -2.95616,14.82272 -2.95616,14.82272 0,0 -0.82116,2.01775 -2.84669,2.25057 -2.02554,0.23281 -2.354,6.44128 -2.57297,9.93353 -0.21897,3.49229 -0.65692,8.53664 1.09488,9.39033 1.75181,0.85367 11.98893,6.59649 18.6677,11.79607 6.67875,5.19962 36.2764,20.9531 36.93333,31.89554 0.65694,10.94245 0.4897,45.67573 0.4897,45.67573 L 36.77735,251.03593 Z m -12.822875,-8.49224 c 34.371807,-17.01231 48.554825,-22.23601 48.554825,-22.23601 0,0 9.525974,-2.87577 9.166503,-14.7383 -0.359471,-11.86253 -2.156825,-16.62552 -2.156825,-16.62552 0,0 -6.919812,-0.17974 -7.459017,-8.8969 -0.539205,-8.71716 -2.066957,-28.03871 -2.156825,-31.633423 -0.08987,-3.594706 3.055501,-11.682799 14.378829,-15.636975 11.323327,-3.954177 12.671342,-6.650207 27.229902,-7.72862 14.55857,-1.078412 15.63698,2.875765 22.37705,10.784121 6.74008,7.908356 5.03259,10.514517 5.12246,17.883667 0.0899,7.36915 -1.79735,11.59293 -1.79735,11.59293 0,0 5.30219,-1.52775 4.13391,6.29074 -1.16828,7.81849 -4.85285,17.16472 -4.85285,17.16472 0,0 -1.34802,2.33656 -4.67312,2.60617 -3.32511,0.2696 -3.86431,7.45901 -4.22378,11.50306 -0.35947,4.04404 -1.07841,9.88544 1.79735,10.87399 2.87577,0.98854 19.68102,7.63875 30.64488,13.65988 10.96385,6.02114 27.14003,12.40174 28.21845,25.07308 1.07841,12.67135 -0.14949,49.29667 -0.14949,49.29667 H 23.457577 Z"
       style="fill:#ffffff;stroke:#ffffff;stroke-width:1.03127;stroke-linecap:butt;stroke-linejoin:miter;stroke-miterlimit:4;stroke-dasharray:none;stroke-opacity:1"
       id="path2836-4-2-3" />
  </g>
</svg>
