<?xml version="1.0" encoding="UTF-8" standalone="no"?>
<svg
   xmlns:dc="http://purl.org/dc/elements/1.1/"
   xmlns:cc="http://creativecommons.org/ns#"
   xmlns:rdf="http://www.w3.org/1999/02/22-rdf-syntax-ns#"
   xmlns:svg="http://www.w3.org/2000/svg"
   xmlns="http://www.w3.org/2000/svg"
   xmlns:xlink="http://www.w3.org/1999/xlink"
   xmlns:sodipodi="http://sodipodi.sourceforge.net/DTD/sodipodi-0.dtd"
   xmlns:inkscape="http://www.inkscape.org/namespaces/inkscape"
   inkscape:version="1.0 (4035a4f, 2020-05-01)"
   sodipodi:docname="skateboard.svg"
   id="svg8"
   version="1.1"
   viewBox="0 0 210 297"
   height="297mm"
   width="210mm">
  <defs
     id="defs2">
    <linearGradient
       inkscape:collect="always"
       id="linearGradient1031">
      <stop
         style="stop-color:#f3dde3;stop-opacity:1"
         offset="0"
         id="stop1053" />
      <stop
         style="stop-color:#ffffff;stop-opacity:0;"
         offset="1"
         id="stop1055" />
    </linearGradient>
    <linearGradient
       y2="236.25926"
       x2="232.931"
       y1="119.21132"
       x1="108.91969"
       gradientUnits="userSpaceOnUse"
       id="linearGradient1046"
       xlink:href="#linearGradient1031"
       inkscape:collect="always" />
  </defs>
  <sodipodi:namedview
     inkscape:window-maximized="0"
     inkscape:window-y="23"
     inkscape:window-x="0"
     inkscape:window-height="943"
     inkscape:window-width="1587"
     showgrid="false"
     inkscape:document-rotation="0"
     inkscape:current-layer="layer2"
     inkscape:document-units="mm"
     inkscape:cy="517.54866"
     inkscape:cx="307.10808"
     inkscape:zoom="0.91096936"
     inkscape:pageshadow="2"
     inkscape:pageopacity="0.0"
     borderopacity="1.0"
     bordercolor="#666666"
     pagecolor="#ffffff"
     id="base" />
  <metadata
     id="metadata5">
    <rdf:RDF>
      <cc:Work
         rdf:about="">
        <dc:format>image/svg+xml</dc:format>
        <dc:type
           rdf:resource="http://purl.org/dc/dcmitype/StillImage" />
        <dc:title></dc:title>
      </cc:Work>
    </rdf:RDF>
  </metadata>
  <g
     style="display:none"
     inkscape:label="Layer 3"
     id="layer4"
     inkscape:groupmode="layer">
    <rect
       y="33.26405"
       x="-1.8480028"
       height="229.89156"
       width="239.13158"
       id="rect1019"
       style="opacity:1;fill:#ff0000;fill-opacity:1;stroke:none;stroke-width:2;stroke-miterlimit:4;stroke-dasharray:none;stroke-opacity:1" />
  </g>
  <g
     style="display:inline"
     inkscape:label="Layer 2"
     id="layer2"
     inkscape:groupmode="layer">
    <path
       d="m 131.80886,243.61542 c 0,0 4.64658,-3.55398 7.79425,0.30905 3.14769,3.86303 -0.29977,7.26248 -1.64877,8.03509 -1.34901,0.77261 -5.6958,1.08165 -6.89492,-2.31781 -1.19912,-3.39947 0,-4.32659 0.74944,-6.02633 z M 66.606947,190.15116 c 0,0 -3.147678,2.47233 -1.948563,6.33536 1.199116,3.86302 4.796464,3.39946 5.845689,3.09042 1.049228,-0.30905 4.346794,-2.16329 3.447458,-6.18084 -0.899336,-4.01755 -5.54591,-4.48111 -7.344584,-3.24494 z m 3.611224,-31.6068 c 0,0 -7.658239,-3.31495 -10.656028,-2.07879 -2.99779,1.23617 -5.84569,7.57154 2.8479,19.77869 8.693588,12.20717 8.693588,6.79893 18.136625,14.21594 9.443035,7.41701 49.013852,37.08504 50.362862,38.78477 1.34901,1.69974 12.44083,13.13429 15.5885,14.37045 3.14768,1.23618 20.23508,8.34414 26.83022,8.03511 6.59513,-0.30905 9.59293,-0.92714 10.19249,-1.85426 0.59954,-0.92713 1.1991,-1.39069 0.44966,-3.39946 -0.74944,-2.00878 -14.2395,-6.79893 -16.33796,-8.34414 -2.09844,-1.54521 -7.49446,-4.01755 -9.7428,-7.41701 -2.24835,-3.39947 -13.34017,-11.58907 -13.34017,-11.58907 l -39.42092,-29.97708 c 0,0 -7.194704,-5.25371 -9.293156,-6.18084 -2.098453,-0.92713 -7.478593,-4.31277 -10.792042,-8.18961 l -1.744347,-2.04094 c 0,0 -11.977281,2.41305 -15.12496,1.17688 -3.147679,-1.23617 -5.723764,-5.76623 -5.12321,-9.78716 0.516506,-3.4582 7.167336,-5.50348 7.167336,-5.50348 z m 67.436379,51.07644 c 0,0 19.33574,-1.85425 20.23509,-2.00877 0.89933,-0.15452 0.59955,-5.25371 -1.64879,-6.79892 -2.24834,-1.54522 -2.99779,-3.86303 -3.74724,-7.57153 -0.74945,-3.7085 -3.14768,-6.18084 -3.44746,-8.0351 -0.29978,-1.85424 -13.63994,1.08166 -13.63994,1.08166 0,0 0.74945,2.3178 0.29978,3.86302 -0.44967,1.54521 -0.89934,4.32659 0.44967,7.72605 1.34901,3.39946 -1.19912,11.89812 1.49889,11.74359 z M 94.18661,151.36638 c 0,0 2.997789,7.10797 3.897125,8.18962 0.899338,1.08164 1.498896,5.09919 0.899338,5.56275 -0.599559,0.46356 -7.044805,3.86303 -12.890495,4.79016 -5.845689,0.92712 -16.93751,3.09041 -18.586294,0.92712 -1.648784,-2.16329 -3.897126,-4.48111 -1.948563,-7.10796 1.948563,-2.62686 5.84569,-2.9359 7.194694,-4.63563 1.349006,-1.69973 2.8479,-6.33537 2.8479,-7.26249 0,-0.92713 1.049227,-5.25372 1.648785,-5.71728 0.599556,-0.46356 5.24613,-1.85425 10.642152,2.00877 5.39602,3.86302 4.646573,2.78138 6.295358,3.24494 z m -5.995579,-91.785483 1.498894,4.172071 2.8479,-0.154524 -1.049228,-3.70851 z M 78.40537,81.119472 c 0,0 -9.458147,-5.507041 -16.689734,-8.586293 -7.231587,-3.079263 -23.738471,-1.134467 -17.135717,18.799672 6.602753,19.934129 25.782181,43.919919 26.096597,47.161249 0.314418,3.24131 3.301377,6.32057 3.301377,6.32057 0,0 14.305967,-16.04454 14.305967,-17.50314 0,-1.45859 -2.672544,-5.18612 -3.930211,-4.37578 -1.257668,0.81033 -5.345087,-7.13092 -5.345087,-7.13092 0,0 17.292926,14.26183 28.926348,12.9653 11.63343,-1.29653 16.50688,-2.59306 17.13572,-0.32414 0.62883,2.26893 5.03067,24.30992 5.34508,26.09265 0.31442,1.78273 1.10047,4.69991 1.10047,4.69991 h -1.41488 c 0,0 -1.57209,5.67232 -0.15721,5.99646 1.41488,0.32412 16.8213,0.32412 19.02222,-0.64827 2.20092,-0.97239 1.57208,-6.15852 1.57208,-6.15852 0,0 -1.72928,0.32414 -2.04371,-0.97239 -0.31441,-1.29653 -3.30137,-43.43372 -3.14416,-46.35091 0.15721,-2.91719 1.8865,-9.39984 -2.98697,-14.585956 -4.87345,-5.186113 -7.70321,-9.237768 -18.55059,-7.455046 -10.84738,1.782732 -20.0714,7.12449 -45.40759,-7.944446 z m 84.15117,-27.99703 v 0 l 4.12615,0.308004 c 0,0 2.00555,0.206754 4.21165,4.341794 2.20611,4.13504 14.03886,28.945279 14.43996,30.599297 0.40111,1.654018 0.60166,4.962044 1.00277,5.995814 0.40111,1.033758 1.805,2.687776 1.20334,5.995799 -0.60168,3.30805 -2.60721,6.40933 -2.60721,8.6836 0,2.27428 0.20055,5.78905 -0.20056,6.61606 -0.40112,0.82701 1.40388,3.10128 1.40388,3.10128 l 0.20055,4.13504 h 1.00279 l 4.01108,3.51479 c 0,0 2.80777,0.20675 3.40944,-2.27428 0.60166,-2.48102 -2.00555,-1.86076 -2.00555,-1.86076 l -1.20332,-2.89453 c 0,0 0.0517,-1.90607 1.1146,-0.29899 1.06288,1.60708 3.25953,4.23685 3.25953,4.23685 0,0 1.84235,0.51134 2.05493,-0.4383 0.21257,-0.94964 0.49602,-1.24184 1.48804,-0.73049 0.99203,0.51135 1.70063,-0.87659 1.55891,-1.46098 -0.14171,-0.58439 0.21258,-2.70282 2.69265,-1.82622 2.48009,0.87658 2.59199,-0.7305 2.45026,-1.89928 -0.14172,-1.16878 -0.11189,-2.77587 -1.74165,-2.33757 -1.62977,0.43829 -1.34634,-8.40064 -1.34634,-8.40064 0,0 -0.0709,-8.911992 -3.18867,-13.660178 -3.11782,-4.748184 -4.10985,-16.801279 -7.22766,-27.612535 -3.11782,-10.811255 -8.78659,-20.599827 -8.78659,-20.599827 l -26.47131,0.03465 c 0,0 -6.04174,9.389358 5.14833,8.731554 z M 46.821721,71.669705 44.634501,64.422104 c 0,0 5.646563,-5.992248 7.141241,-8.731564 1.494678,-2.739306 5.314411,-11.642079 5.314411,-11.642079 l 97.612787,0.342417 c 0,0 -1.56212,5.135132 -1.22997,6.162373 0.33215,1.027241 1.93546,3.320588 1.93546,3.320588 0,0 -0.99811,4.2136 -4.31963,2.501535 -3.3215,-1.712075 -8.80198,-0.342417 -8.63591,3.252932 0.16608,3.595349 1.32861,12.840528 2.98936,16.607086 1.66075,3.766557 7.80554,17.976734 7.63946,20.544845 -0.16607,2.568104 -1.49467,11.984493 -1.49467,11.984493 0,0 -1.82683,-1.02724 -2.15899,-3.08172 -0.33214,-2.0545 -0.88948,-7.169279 -5.20744,-12.134279 -4.31796,-4.965007 -9.42024,-9.206656 -19.38476,-7.152174 -9.96451,2.054482 -15.97115,3.42414 -23.61061,1.883274 -7.639482,-1.540857 -20.392838,-8.901679 -20.392838,-8.901679 l 1.667281,-4.683627 c 0,0 -4.816186,-4.965007 -5.148337,-6.505863 -0.33215,-1.540867 -8.168876,5.444424 -8.168876,5.444424 0,0 -12.847209,-8.657169 -22.360749,-1.963381 z M 26.151846,130.16016 c 0,0 -0.890073,1.2954 -1.466002,1.61925 -0.575929,0.32384 -1.361288,0.48577 -2.199,0.91758 -0.837715,0.43179 -3.036724,2.53682 -3.036724,2.53682 0,0 -3.97914,0.48578 -4.607431,1.24143 -0.628282,0.75565 1.989575,1.02553 0.994787,2.42887 -0.994787,1.40335 -2.198999,0.91758 -3.036723,0.70167 -0.837715,-0.21589 -1.623069,-1.83514 -1.989575,-3.56235 -0.366497,-1.72719 -0.732994,-0.10794 -0.785354,0.43181 -0.052342,0.53975 -0.6806425,2.59079 -0.5235698,3.13054 0.1570728,0.53976 1.2565728,2.53684 0,3.40043 C 8.245682,143.86981 7.56504,141.38696 7.56504,141.38696 l -0.8900754,-0.80962 c 0,0 -1.1518603,-0.16193 -1.7801514,-2.42888 C 4.2665321,135.8815 4.1094593,133.7225 4.1094593,133.7225 m 0,0 c 0,0 -0.7853539,-0.97154 -0.8900757,-1.56526 -0.1047118,-0.59374 0.2094337,-4.26403 0.5759302,-4.91174 0.3665064,-0.64769 10.8903022,-7.3406 11.7280172,-7.5565 0.837714,-0.2159 3.298508,-2.21297 4.136223,-5.28956 0.837714,-3.07657 2.932001,-7.39458 3.717359,-10.30922 0.785359,-2.91465 6.806439,-20.996299 8.743655,-23.802994 C 34.057785,77.480521 43.016525,67.6132 43.016525,67.6132 l 1.604336,5.638322 c 0,0 -4.012808,3.419379 -3.960451,8.708927 0.05236,5.289558 -0.06303,5.525735 1.178583,8.964056 0.902486,2.499204 -9.299568,17.861535 -9.299568,17.861535 0,0 -2.984361,6.96278 -3.455576,8.58203 -0.471214,1.61925 -1.361287,4.80378 -1.256572,5.88328 0.104714,1.0795 0.471215,2.32093 -0.157072,3.34646 -0.628287,1.02552 -0.837715,2.59079 -1.518359,3.56235"
       style="fill:url(#linearGradient1046);fill-opacity:1;stroke:none;stroke-width:0.879914;stroke-linecap:butt;stroke-linejoin:miter;stroke-miterlimit:4;stroke-dasharray:none;stroke-opacity:1"
       id="path970" />
  </g>
</svg>
